# xmcd
#
# Track frame offsets:
#	150
#	14941
#	31070
#	43059
#	55758
#	67226
#	81883
#	95611
#	108099
#	120976
#	134694
#	147318
#	161520
#	174608
#	190363
#	204316
#	217378
#	231825
#	244840
#	259995
#	272609
#	285144
#	298036
#	313223
#	327275
#
# Disc length: 4517 seconds
#
# Revision: 1
# Processed by: cddbd v1.5.1PL2 Copyright (c) Steve Scherf et al.
# Submitted via: audiograbber 1.83.01
#
DISCID=8511a319
DTITLE=Various Artist - Chicago Urban Blues
DYEAR=1900
DGENRE=Vintage
TTITLE0=Bedroom Blues - Sippie Wallace
TTITLE1=Sport Model Mama - Bertha Hill
TTITLE2=Chicago Bound Blues- Ida Cox
TTITLE3=Pine Top Blues - Pine Top Smith
TTITLE4=Suitcase Blues - Hersal Thomas
TTITLE5=Honky Tonk Train Blues - Meade Lux Lewis
TTITLE6=Big Bill Blues - Big Bill Broonzy
TTITLE7=I Wonder Where My Easy Rider Gone - Tampa Red
TTITLE8=Come On Mama - Georgia Tom and Hannah May
TTITLE9=Feather Bed Blues - Bumble Bee Slim
TTITLE10=Squat It - Memphis Minnie
TTITLE11=Cold Winter Blues  Komono Arnold
TTITLE12=My Stove's In Good Condition - Lil Johnson
TTITLE13=Down In The Alley - Bob Robinson and His Bob Cats
TTITLE14=Million Years Blues - Sonny Boy Williamson
TTITLE15=She Fooled Me - Washboard Sam and His Washboard Band
TTITLE16=Down South Blues - Jass Gillum
TTITLE17=We Gonna Pitch A Boogie Woogie - Harlem Hamfats
TTITLE18=Beer Drinking Woman - Memphis Slim
TTITLE19=East St Louis Blues - Jimmy Yancey and Faber Smith
TTITLE20=Classy Mae Blues - Tommy McClennan
TTITLE21=Worried Life Blues - Big Maceo
TTITLE22=Romance In the Dark - Lil Green
TTITLE23=Watch Shorty - Lonnie Johnson
TTITLE24=This Tavern Boogie - Roosevelt Sykes Trio
EXTD=
EXTT0=
EXTT1=
EXTT2=
EXTT3=
EXTT4=
EXTT5=
EXTT6=
EXTT7=
EXTT8=
EXTT9=
EXTT10=
EXTT11=
EXTT12=
EXTT13=
EXTT14=
EXTT15=
EXTT16=
EXTT17=
EXTT18=
EXTT19=
EXTT20=
EXTT21=
EXTT22=
EXTT23=
EXTT24=
PLAYORDER=
